<svg xmlns="http://www.w3.org/2000/svg" width="35" height="35" viewBox="0 0 35 35" fill="none">
    <circle cx="17.5" cy="17.5" r="17.5" fill="#F4F4F4"/>
    <path d="M27.9503 24.4814H28.2127C28.4314 24.4814 28.6064 24.3921 28.7813 24.2581C28.9563 24.0794 29 23.9007 29 23.6774V18.7643C29 18.4516 28.9125 18.1836 28.7813 17.871L27.1193 14.2531C27.0755 14.1638 27.0318 14.1191 26.9881 14.0744C26.8569 13.9404 26.6382 13.8511 26.4632 13.8511H21.6521M14.4354 11.5285L13.4732 9.87593L14.5229 8C14.7853 8.134 14.9602 8.35732 15.0915 8.66998C15.4414 8.62531 15.7038 8.66998 15.9662 8.80397L14.6103 11.2605L14.4354 11.5285ZM14.4354 11.5285L14.8728 12.3772M14.4354 11.5285L13.5169 9.87593L12.4672 8C12.2485 8.134 12.0298 8.35732 11.8986 8.66998C11.5487 8.62531 11.2863 8.66998 11.0239 8.80397L12.2048 10.9032M12.2048 10.9032L13.0358 12.3772H14.7853M12.2048 10.9032C11.6362 10.5459 11.0239 10.2333 10.4115 10.0099C10.0616 9.83127 9.75547 9.74194 9.49304 9.74194C9.14314 9.74194 8.83698 9.87593 8.57455 10.1439C8.31213 10.3672 8.18091 10.6799 8.18091 11.0372C8.18091 11.3945 8.31213 11.7072 8.57455 11.9752C8.83698 12.2432 9.14314 12.3772 9.49304 12.3772H12.6421H13.1233L12.2048 10.9032ZM14.7853 12.3772H14.8728M14.7853 12.3772V20.3722M14.7853 12.3772H17.9344M14.8728 12.3772H17.9344M14.8728 12.3772L14.6103 11.2159C15.3539 10.6799 16.1412 10.2779 16.9722 9.9206C17.3658 9.7866 17.672 9.69727 17.9344 9.69727C18.2843 9.69727 18.5905 9.83127 18.8529 10.0993C19.1153 10.3672 19.2465 10.6799 19.2465 11.0372C19.2465 11.3945 19.1153 11.7072 18.8529 11.9752C18.5905 12.2432 18.2843 12.3772 17.9344 12.3772M17.9344 12.3772H20.165V20.3722H14.7853M14.7853 20.3722H12.5984M12.5984 20.3722H7V12.3772H9.4493H12.5984V20.3722ZM7 21.8908V23.6774C7 23.9007 7.08748 24.0794 7.21869 24.2134C7.39364 24.3474 7.56859 24.4367 7.78728 24.4367H9.05567M15.9225 24.4814H21.0398M27.1193 17.6476H22.9205C22.833 17.6476 22.7893 17.603 22.7455 17.5583C22.7018 17.5136 22.6581 17.4243 22.6581 17.3797V15.2804H25.9821L27.1193 17.6476ZM25.9821 22.3375C25.5885 21.9355 25.0636 21.7122 24.495 21.7122C23.9264 21.7122 23.4016 21.9355 23.008 22.3375C22.6143 22.7395 22.3956 23.2754 22.3956 23.8561C22.3956 24.4367 22.6143 24.928 23.008 25.3747C23.4016 25.7767 23.9264 26 24.495 26C25.0636 26 25.5885 25.7767 25.9821 25.3747C26.3757 24.9727 26.5944 24.4367 26.5944 23.8561C26.5944 23.2754 26.4195 22.7841 25.9821 22.3375ZM13.998 22.3375C13.6044 21.9355 13.0795 21.7122 12.5109 21.7122C11.9423 21.7122 11.4175 21.9355 11.0239 22.3375C10.6302 22.7395 10.4115 23.2754 10.4115 23.8561C10.4115 24.4367 10.6302 24.928 11.0239 25.3747C11.4175 25.7767 11.9423 26 12.5109 26C13.0795 26 13.6044 25.7767 13.998 25.3747C14.3917 24.9727 14.6103 24.4367 14.6103 23.8561C14.6103 23.2754 14.3917 22.7841 13.998 22.3375Z" stroke="#60967D" stroke-miterlimit="3" stroke-linecap="round" stroke-linejoin="round"/>
</svg>